<?xml version="1.0" standalone="no"?>
<!DOCTYPE svg PUBLIC "-//W3C//DTD SVG 20010904//EN"
 "http://www.w3.org/TR/2001/REC-SVG-20010904/DTD/svg10.dtd">
<svg version="1.0" xmlns="http://www.w3.org/2000/svg"
 width="2500.000000pt" height="2500.000000pt" viewBox="0 0 2500.000000 2500.000000"
 preserveAspectRatio="xMidYMid meet">

<g transform="translate(0.000000,2500.000000) scale(0.100000,-0.100000)"
fill="#000000" stroke="none">
<path d="M11740 19668 c-197 -4 -371 -13 -390 -19 -19 -6 -143 -17 -275 -25
-314 -18 -442 -30 -485 -45 -35 -11 -110 -18 -405 -37 -114 -8 -163 -15 -205
-32 -53 -21 -109 -30 -320 -50 -52 -5 -122 -19 -155 -31 -39 -14 -99 -24 -175
-30 -177 -12 -251 -24 -305 -48 -29 -13 -87 -26 -138 -32 -86 -9 -208 -36
-295 -65 -23 -8 -60 -14 -81 -14 -56 0 -190 -29 -231 -50 -19 -10 -70 -24
-114 -30 -43 -7 -108 -24 -145 -40 -36 -15 -104 -36 -151 -45 -47 -10 -105
-28 -130 -40 -25 -13 -97 -35 -160 -50 -63 -15 -125 -34 -138 -42 -13 -8 -57
-21 -98 -28 -41 -8 -88 -22 -104 -30 -16 -8 -69 -26 -117 -39 -49 -13 -110
-33 -136 -45 -26 -11 -75 -28 -109 -37 -34 -8 -91 -30 -127 -48 -36 -19 -82
-37 -101 -41 -19 -4 -55 -18 -80 -32 -25 -13 -79 -31 -120 -40 -41 -8 -93 -25
-116 -38 -22 -13 -63 -29 -90 -36 -27 -7 -96 -36 -154 -66 -58 -29 -127 -60
-155 -69 -27 -9 -96 -39 -152 -65 -56 -27 -105 -49 -109 -49 -5 0 -24 -11 -44
-25 -20 -14 -67 -34 -103 -44 -37 -10 -84 -29 -104 -43 -21 -13 -54 -31 -73
-38 -29 -12 -136 -65 -300 -150 -19 -10 -45 -28 -58 -40 -13 -12 -46 -28 -74
-36 -28 -7 -63 -24 -77 -38 -14 -13 -46 -32 -71 -42 -25 -10 -81 -41 -125 -69
-44 -28 -100 -59 -125 -69 -25 -10 -70 -33 -100 -53 -126 -80 -148 -95 -221
-145 -42 -29 -89 -61 -105 -70 -16 -10 -60 -40 -99 -68 -38 -28 -91 -62 -116
-75 -25 -13 -51 -30 -58 -39 -7 -9 -52 -41 -100 -73 -47 -31 -105 -73 -127
-92 -64 -55 -124 -103 -169 -134 -74 -50 -110 -78 -145 -111 -19 -18 -57 -49
-85 -69 -27 -19 -77 -63 -110 -97 -33 -34 -82 -77 -110 -95 -27 -19 -192 -177
-366 -352 -226 -228 -330 -339 -364 -393 -27 -41 -67 -93 -90 -116 -22 -22
-62 -73 -90 -113 -27 -40 -74 -100 -103 -133 -65 -76 -269 -382 -315 -474 -71
-141 -109 -210 -127 -229 -11 -11 -30 -45 -44 -75 -14 -30 -32 -66 -40 -80
-38 -66 -104 -210 -111 -241 -4 -19 -22 -63 -40 -99 -18 -36 -38 -86 -45 -110
-6 -25 -22 -63 -35 -85 -12 -22 -31 -76 -40 -120 -10 -44 -25 -93 -35 -110
-24 -40 -37 -93 -49 -196 -6 -52 -18 -99 -29 -120 -12 -19 -28 -81 -37 -144
-10 -60 -29 -153 -42 -205 -23 -86 -26 -125 -35 -424 -14 -452 0 -848 36 -992
13 -55 30 -149 37 -209 10 -81 19 -116 36 -142 16 -23 29 -70 43 -153 12 -73
29 -139 44 -168 13 -26 30 -76 36 -110 7 -35 25 -82 41 -105 15 -23 33 -64 40
-92 7 -27 23 -66 35 -85 12 -19 28 -55 34 -80 7 -24 30 -78 51 -118 21 -41 39
-80 39 -88 0 -20 27 -72 50 -97 10 -10 21 -30 25 -44 3 -13 21 -47 40 -75 19
-28 35 -55 35 -61 0 -10 16 -36 109 -180 18 -29 44 -73 57 -99 13 -26 28 -49
34 -53 6 -3 19 -24 30 -45 11 -22 31 -52 45 -67 66 -75 94 -112 115 -153 12
-24 34 -56 49 -71 38 -38 100 -112 119 -142 14 -21 95 -128 154 -201 49 -63
666 -670 727 -716 77 -58 101 -77 282 -227 25 -21 79 -63 118 -93 96 -73 148
-114 191 -150 97 -83 118 -99 155 -118 22 -11 51 -30 65 -42 14 -12 41 -30 61
-40 19 -10 42 -26 49 -35 8 -9 34 -28 59 -41 52 -29 132 -81 176 -117 17 -13
46 -32 65 -42 51 -26 132 -80 157 -105 12 -12 45 -30 74 -41 29 -11 71 -33 93
-49 23 -16 55 -32 72 -36 17 -3 48 -21 69 -39 21 -19 50 -37 65 -40 16 -3 48
-19 72 -34 88 -56 165 -100 218 -125 56 -26 164 -87 210 -118 14 -9 44 -21 67
-27 23 -6 103 -43 179 -81 75 -39 160 -77 189 -85 28 -9 67 -27 85 -40 19 -14
39 -25 44 -25 6 0 54 -20 106 -45 52 -25 102 -45 111 -45 8 0 35 -13 60 -29
24 -16 76 -37 114 -47 39 -9 95 -29 125 -45 31 -15 76 -32 100 -39 25 -7 65
-22 90 -35 25 -12 70 -30 100 -40 30 -10 75 -28 100 -40 25 -12 80 -30 122
-39 43 -10 81 -22 84 -28 11 -18 86 -45 159 -58 39 -7 84 -20 100 -30 17 -9
69 -27 117 -39 47 -11 101 -29 120 -40 18 -11 69 -25 113 -31 44 -7 110 -26
147 -41 37 -16 110 -38 162 -49 53 -11 107 -27 120 -35 13 -9 90 -27 170 -41
81 -13 168 -33 194 -43 26 -10 80 -24 120 -30 40 -6 114 -25 165 -41 51 -16
137 -34 192 -40 55 -6 142 -22 193 -36 51 -14 161 -32 245 -40 117 -12 164
-21 204 -40 42 -19 80 -27 185 -35 73 -5 174 -17 223 -25 50 -9 119 -20 155
-24 36 -4 99 -13 140 -19 41 -5 179 -17 305 -26 127 -9 252 -23 280 -31 27 -8
117 -19 200 -24 82 -5 204 -14 270 -20 75 -6 582 -9 1365 -7 1111 2 1265 4
1435 20 105 10 221 25 259 34 38 8 158 19 265 23 108 5 239 16 291 25 52 9
127 20 165 25 39 4 102 13 140 19 39 6 122 18 185 27 63 9 142 23 175 31 33 8
94 19 135 24 127 14 322 48 374 64 27 8 118 26 203 41 85 14 167 30 181 35 31
12 275 71 437 105 61 13 146 34 190 48 44 13 129 36 188 50 60 15 126 35 148
46 21 11 46 20 56 20 22 0 97 21 178 50 33 11 97 30 143 40 45 11 93 26 105
34 12 8 56 21 98 30 41 9 95 27 120 40 24 13 76 30 116 39 40 9 96 28 124 43
29 14 75 33 103 41 28 8 76 28 106 43 30 15 93 37 140 50 47 12 98 29 114 37
16 8 52 22 80 30 28 8 63 26 79 39 15 13 47 28 70 35 23 6 61 21 84 34 23 13
64 30 91 39 27 9 64 28 83 42 19 14 59 32 89 41 30 8 80 28 110 44 30 15 73
32 95 38 50 13 533 255 561 282 11 10 25 19 31 19 6 0 38 18 71 40 33 22 79
47 102 55 41 15 82 38 179 102 27 17 66 39 87 48 21 9 48 24 59 34 11 11 43
30 72 45 28 14 54 30 58 35 3 6 40 31 83 56 76 46 193 127 264 185 20 16 49
34 63 40 24 9 152 95 165 110 6 8 111 86 164 123 23 16 68 55 101 87 33 31 68
62 78 67 9 5 45 36 80 69 34 33 78 71 97 84 53 36 106 79 174 140 33 31 86 74
116 97 63 47 290 274 290 291 0 6 52 64 116 129 63 65 122 129 129 143 8 14
35 45 61 70 25 25 64 70 85 102 21 31 42 58 47 60 4 1 36 41 70 88 76 106 119
162 155 203 24 28 65 88 226 337 16 25 40 68 53 95 42 86 100 189 120 211 19
22 61 95 103 184 14 30 39 82 55 115 16 33 32 76 35 95 4 19 20 60 36 90 15
30 33 75 39 100 6 25 24 68 40 95 15 28 35 86 45 130 10 44 26 94 36 111 11
18 25 77 35 140 9 65 26 131 41 164 18 41 28 89 39 190 13 122 21 163 57 295
7 26 11 206 11 525 1 491 -3 570 -40 730 -8 36 -21 114 -30 173 -8 60 -22 132
-30 160 -9 29 -28 108 -45 177 -17 72 -46 163 -70 214 -23 49 -50 114 -60 145
-11 31 -35 85 -53 121 -18 36 -43 96 -56 135 -13 38 -31 83 -41 99 -9 17 -25
57 -34 89 -17 59 -76 165 -126 227 -16 19 -29 40 -29 46 0 6 -13 29 -28 50
-15 21 -54 93 -87 159 -32 66 -73 136 -89 157 -17 20 -45 56 -62 80 -37 51
-166 224 -211 282 -18 22 -41 52 -50 66 -47 67 -136 181 -147 187 -7 5 -35 35
-61 68 -27 33 -80 92 -119 130 -39 39 -83 86 -98 105 -33 45 -396 410 -407
410 -5 0 -52 43 -105 95 -53 52 -120 110 -149 129 -28 18 -72 55 -97 81 -25
26 -65 61 -90 78 -25 17 -56 41 -70 54 -61 55 -107 91 -130 103 -13 7 -57 38
-98 69 -147 112 -188 141 -237 167 -27 15 -63 38 -80 51 -65 52 -130 96 -165
112 -21 9 -52 29 -71 44 -69 56 -133 99 -173 117 -23 9 -47 24 -54 33 -7 8
-27 21 -45 28 -18 6 -45 22 -62 34 -16 12 -50 32 -75 45 -25 12 -58 33 -73 46
-15 13 -51 30 -78 38 -28 9 -66 29 -85 46 -19 16 -41 30 -48 30 -8 0 -38 16
-67 36 -30 20 -74 43 -99 51 -24 8 -58 26 -76 39 -17 13 -35 24 -40 24 -5 0
-35 18 -66 39 -32 21 -81 44 -110 51 -29 7 -71 24 -93 39 -22 16 -61 35 -87
44 -26 8 -62 27 -80 40 -18 14 -51 30 -73 36 -22 6 -54 19 -70 29 -17 10 -60
29 -96 41 -37 12 -75 31 -84 41 -10 11 -43 27 -74 35 -31 9 -71 25 -89 36 -18
10 -67 30 -109 44 -41 13 -86 31 -100 40 -13 9 -61 25 -106 36 -45 11 -104 33
-132 49 -27 16 -68 32 -90 36 -22 4 -65 19 -95 34 -30 15 -82 33 -115 40 -33
7 -79 24 -102 40 -23 15 -71 33 -105 40 -35 6 -90 25 -123 40 -34 16 -94 34
-138 40 -45 7 -105 24 -140 41 -34 16 -76 29 -92 29 -43 0 -141 27 -171 46
-28 19 -124 44 -169 44 -16 0 -59 14 -95 31 -39 19 -100 37 -155 46 -49 8
-128 27 -175 43 -58 20 -120 33 -195 39 -92 8 -120 15 -170 41 -47 24 -80 32
-155 39 -52 5 -135 21 -185 36 -58 16 -136 29 -220 36 -71 6 -146 14 -165 19
-19 5 -89 23 -155 40 -83 22 -157 34 -240 39 -66 5 -132 13 -148 19 -49 21
-149 33 -342 43 -219 11 -316 21 -365 38 -51 18 -172 29 -450 41 -135 6 -315
15 -400 21 -436 30 -1167 42 -1750 27z m1555 -608 c966 -45 1850 -153 2720
-331 2281 -469 4194 -1341 5570 -2539 178 -156 535 -515 685 -691 312 -364
544 -707 740 -1094 265 -522 409 -1013 460 -1565 16 -166 13 -549 -4 -730 -77
-784 -395 -1562 -930 -2280 -1510 -2026 -4655 -3476 -8301 -3825 -610 -58
-1065 -79 -1735 -79 -1235 0 -2304 103 -3438 330 -1836 367 -3431 993 -4727
1855 -1374 913 -2290 2033 -2649 3241 -105 351 -154 664 -163 1043 -6 267 4
452 37 682 177 1209 913 2361 2140 3348 1808 1453 4560 2405 7550 2609 185 13
506 28 850 40 168 6 968 -3 1195 -14z"/>
<path d="M8675 18175 c-309 -58 -1112 -289 -1580 -456 -2789 -992 -4623 -2647
-4995 -4508 -46 -232 -61 -370 -67 -617 -12 -521 66 -962 259 -1452 71 -180
207 -458 306 -624 250 -418 836 -1053 1417 -1534 330 -273 690 -533 1095 -791
252 -160 669 -373 1128 -576 56 -25 102 -44 102 -42 0 2 -40 64 -89 137 -514
771 -677 1474 -452 1954 137 291 375 467 731 540 116 24 388 24 520 1 448 -81
860 -290 1259 -641 297 -260 604 -649 814 -1031 37 -66 70 -127 75 -135 6 -10
20 19 47 100 272 824 747 1241 1301 1145 719 -126 1438 -1062 1843 -2400 54
-178 103 -365 137 -517 16 -71 31 -128 34 -128 3 0 16 46 29 103 30 137 93
373 143 532 319 1030 822 1828 1383 2198 212 139 387 203 592 214 426 23 765
-220 1034 -742 65 -126 164 -370 190 -468 7 -26 16 -47 19 -47 3 0 16 21 29
47 140 288 424 684 683 953 679 705 1575 1007 2205 743 314 -132 523 -405 573
-751 19 -131 8 -400 -23 -542 -47 -217 -123 -424 -247 -672 -65 -130 -183
-334 -256 -442 -18 -28 -32 -51 -30 -53 2 -2 95 40 207 93 1247 587 2285 1368
2943 2213 473 608 778 1266 885 1906 42 253 46 307 46 615 -1 333 -10 438 -65
710 -344 1710 -1927 3258 -4362 4269 -498 206 -1072 400 -1658 560 -222 60
-480 123 -492 119 -4 -2 15 -35 43 -73 86 -116 271 -402 354 -545 585 -1014
750 -2022 468 -2860 -296 -883 -1056 -1398 -1763 -1193 -496 143 -870 612
-1076 1350 -35 125 -40 170 -202 1720 -92 876 -170 1592 -174 1590 -4 -1 -145
-180 -314 -397 -168 -217 -315 -405 -327 -417 l-20 -23 -803 0 -802 0 -328
421 c-255 326 -330 416 -336 402 -3 -10 -79 -724 -168 -1586 l-161 -1569 -41
-146 c-55 -202 -107 -341 -193 -517 -177 -362 -405 -611 -689 -750 -189 -93
-379 -134 -566 -121 -774 53 -1403 794 -1510 1779 -13 127 -13 463 0 597 75
740 395 1510 938 2258 93 127 95 122 -43 97z"/>
</g>
</svg>
